<?xml version="1.0" encoding="UTF-8"?>
<svg xmlns="http://www.w3.org/2000/svg" xmlns:xlink="http://www.w3.org/1999/xlink" width="1625px" height="1210px" viewBox="0 0 1625 1210" version="1.1">
<defs>
<filter id="alpha" filterUnits="objectBoundingBox" x="0%" y="0%" width="100%" height="100%">
  <feColorMatrix type="matrix" in="SourceGraphic" values="0 0 0 0 1 0 0 0 0 1 0 0 0 0 1 0 0 0 1 0"/>
</filter>
<mask id="mask0">
  <g filter="url(#alpha)">
<rect x="0" y="0" width="1625" height="1210" style="fill:rgb(0%,0%,0%);fill-opacity:0.968627;stroke:none;"/>
  </g>
</mask>
<clipPath id="clip1">
  <rect x="0" y="0" width="1625" height="1210"/>
</clipPath>
<g id="surface5" clip-path="url(#clip1)">
<path style=" stroke:none;fill-rule:evenodd;fill:rgb(0%,40.784314%,14.901961%);fill-opacity:1;" d="M 1131.160156 240.253906 C 1131.160156 254 1131.160156 267.742188 1131.160156 281.488281 C 1129.574219 281.488281 1127.988281 281.488281 1126.402344 281.488281 C 1126.402344 268.273438 1126.402344 255.054688 1126.402344 241.839844 C 1127.527344 240.40625 1129.113281 239.878906 1131.160156 240.253906 Z M 1131.160156 240.253906 "/>
</g>
<mask id="mask1">
  <g filter="url(#alpha)">
<rect x="0" y="0" width="1625" height="1210" style="fill:rgb(0%,0%,0%);fill-opacity:0.980392;stroke:none;"/>
  </g>
</mask>
<clipPath id="clip2">
  <rect x="0" y="0" width="1625" height="1210"/>
</clipPath>
<g id="surface8" clip-path="url(#clip2)">
<path style=" stroke:none;fill-rule:evenodd;fill:rgb(0%,37.254902%,13.72549%);fill-opacity:1;" d="M 1131.160156 240.253906 C 1132.214844 240.253906 1133.273438 240.253906 1134.328125 240.253906 C 1134.328125 254 1134.328125 267.742188 1134.328125 281.488281 C 1133.273438 281.488281 1132.214844 281.488281 1131.160156 281.488281 C 1131.160156 267.742188 1131.160156 254 1131.160156 240.253906 Z M 1131.160156 240.253906 "/>
</g>
<mask id="mask2">
  <g filter="url(#alpha)">
<rect x="0" y="0" width="1625" height="1210" style="fill:rgb(0%,0%,0%);fill-opacity:0.976471;stroke:none;"/>
  </g>
</mask>
<clipPath id="clip3">
  <rect x="0" y="0" width="1625" height="1210"/>
</clipPath>
<g id="surface11" clip-path="url(#clip3)">
<path style=" stroke:none;fill-rule:evenodd;fill:rgb(0%,34.901961%,12.54902%);fill-opacity:1;" d="M 1134.328125 240.253906 C 1135.386719 240.253906 1136.441406 240.253906 1137.5 240.253906 C 1137.5 254 1137.5 267.742188 1137.5 281.488281 C 1136.441406 281.488281 1135.386719 281.488281 1134.328125 281.488281 C 1134.328125 267.742188 1134.328125 254 1134.328125 240.253906 Z M 1134.328125 240.253906 "/>
</g>
<mask id="mask3">
  <g filter="url(#alpha)">
<rect x="0" y="0" width="1625" height="1210" style="fill:rgb(0%,0%,0%);fill-opacity:0.968627;stroke:none;"/>
  </g>
</mask>
<clipPath id="clip4">
  <rect x="0" y="0" width="1625" height="1210"/>
</clipPath>
<g id="surface14" clip-path="url(#clip4)">
<path style=" stroke:none;fill-rule:evenodd;fill:rgb(0%,32.941176%,11.764706%);fill-opacity:1;" d="M 1137.5 240.253906 C 1138.914062 241.222656 1140.496094 241.75 1142.257812 241.839844 C 1142.257812 254.527344 1142.257812 267.214844 1142.257812 279.902344 C 1140.84375 280.867188 1139.257812 281.398438 1137.5 281.488281 C 1137.5 267.742188 1137.5 254 1137.5 240.253906 Z M 1137.5 240.253906 "/>
</g>
<mask id="mask4">
  <g filter="url(#alpha)">
<rect x="0" y="0" width="1625" height="1210" style="fill:rgb(0%,0%,0%);fill-opacity:0.941176;stroke:none;"/>
  </g>
</mask>
<clipPath id="clip5">
  <rect x="0" y="0" width="1625" height="1210"/>
</clipPath>
<g id="surface17" clip-path="url(#clip5)">
<path style=" stroke:none;fill-rule:evenodd;fill:rgb(0%,30.588235%,10.980392%);fill-opacity:1;" d="M 1142.257812 241.839844 C 1143.839844 242.371094 1144.898438 243.425781 1145.425781 245.011719 C 1145.425781 256.113281 1145.425781 267.214844 1145.425781 278.316406 C 1144.371094 278.84375 1143.3125 279.375 1142.257812 279.902344 C 1142.257812 267.214844 1142.257812 254.527344 1142.257812 241.839844 Z M 1142.257812 241.839844 "/>
</g>
<mask id="mask5">
  <g filter="url(#alpha)">
<rect x="0" y="0" width="1625" height="1210" style="fill:rgb(0%,0%,0%);fill-opacity:0.960784;stroke:none;"/>
  </g>
</mask>
<clipPath id="clip6">
  <rect x="0" y="0" width="1625" height="1210"/>
</clipPath>
<g id="surface20" clip-path="url(#clip6)">
<path style=" stroke:none;fill-rule:evenodd;fill:rgb(0%,46.27451%,17.254902%);fill-opacity:1;" d="M 1126.402344 241.839844 C 1126.402344 255.054688 1126.402344 268.273438 1126.402344 281.488281 C 1124.484375 280.800781 1122.898438 279.746094 1121.644531 278.316406 C 1121.644531 266.6875 1121.644531 255.054688 1121.644531 243.425781 C 1123.058594 242.460938 1124.644531 241.933594 1126.402344 241.839844 Z M 1126.402344 241.839844 "/>
</g>
<mask id="mask6">
  <g filter="url(#alpha)">
<rect x="0" y="0" width="1625" height="1210" style="fill:rgb(0%,0%,0%);fill-opacity:0.909804;stroke:none;"/>
  </g>
</mask>
<clipPath id="clip7">
  <rect x="0" y="0" width="1625" height="1210"/>
</clipPath>
<g id="surface23" clip-path="url(#clip7)">
<path style=" stroke:none;fill-rule:evenodd;fill:rgb(0%,51.764706%,19.607843%);fill-opacity:1;" d="M 1121.644531 243.425781 C 1121.644531 255.054688 1121.644531 266.6875 1121.644531 278.316406 C 1118.476562 278.316406 1116.890625 276.730469 1116.890625 273.558594 C 1116.890625 265.101562 1116.890625 256.640625 1116.890625 248.183594 C 1117.949219 246.070312 1119.53125 244.484375 1121.644531 243.425781 Z M 1121.644531 243.425781 "/>
</g>
<mask id="mask7">
  <g filter="url(#alpha)">
<rect x="0" y="0" width="1625" height="1210" style="fill:rgb(0%,0%,0%);fill-opacity:0.929412;stroke:none;"/>
  </g>
</mask>
<clipPath id="clip8">
  <rect x="0" y="0" width="1625" height="1210"/>
</clipPath>
<g id="surface26" clip-path="url(#clip8)">
<path style=" stroke:none;fill-rule:evenodd;fill:rgb(0%,25.490196%,9.411765%);fill-opacity:1;" d="M 1145.425781 245.011719 C 1147.011719 245.542969 1148.070312 246.597656 1148.597656 248.183594 C 1148.597656 257.171875 1148.597656 266.15625 1148.597656 275.144531 C 1148.070312 276.730469 1147.011719 277.789062 1145.425781 278.316406 C 1145.425781 267.214844 1145.425781 256.113281 1145.425781 245.011719 Z M 1145.425781 245.011719 "/>
</g>
<mask id="mask8">
  <g filter="url(#alpha)">
<rect x="0" y="0" width="1625" height="1210" style="fill:rgb(0%,0%,0%);fill-opacity:0.886275;stroke:none;"/>
  </g>
</mask>
<clipPath id="clip9">
  <rect x="0" y="0" width="1625" height="1210"/>
</clipPath>
<g id="surface29" clip-path="url(#clip9)">
<path style=" stroke:none;fill-rule:evenodd;fill:rgb(0%,21.176471%,7.843137%);fill-opacity:1;" d="M 1148.597656 248.183594 C 1152.445312 251.371094 1154.03125 255.597656 1153.355469 260.871094 C 1153.929688 266.503906 1152.34375 271.261719 1148.597656 275.144531 C 1148.597656 266.15625 1148.597656 257.171875 1148.597656 248.183594 Z M 1148.597656 248.183594 "/>
</g>
<mask id="mask9">
  <g filter="url(#alpha)">
<rect x="0" y="0" width="1625" height="1210" style="fill:rgb(0%,0%,0%);fill-opacity:0.494118;stroke:none;"/>
  </g>
</mask>
<clipPath id="clip10">
  <rect x="0" y="0" width="1625" height="1210"/>
</clipPath>
<g id="surface32" clip-path="url(#clip10)">
<path style=" stroke:none;fill-rule:evenodd;fill:rgb(0%,57.647059%,21.568627%);fill-opacity:1;" d="M 1116.890625 248.183594 C 1116.890625 256.640625 1116.890625 265.101562 1116.890625 273.558594 C 1113.09375 270.652344 1111.507812 266.6875 1112.132812 261.664062 C 1111.773438 256.339844 1113.359375 251.847656 1116.890625 248.183594 Z M 1116.890625 248.183594 "/>
</g>
<mask id="mask10">
  <g filter="url(#alpha)">
<rect x="0" y="0" width="1625" height="1210" style="fill:rgb(0%,0%,0%);fill-opacity:0.968627;stroke:none;"/>
  </g>
</mask>
<clipPath id="clip11">
  <rect x="0" y="0" width="1625" height="1210"/>
</clipPath>
<g id="surface35" clip-path="url(#clip11)">
<path style=" stroke:none;fill-rule:evenodd;fill:rgb(0%,58.431373%,22.352941%);fill-opacity:1;" d="M 964.695312 611.34375 C 924.28125 590.34375 884.644531 568.140625 845.792969 544.738281 C 882.289062 477.796875 919.808594 411.457031 958.355469 345.714844 C 969.128906 339.882812 978.375 341.734375 986.097656 351.265625 C 988.265625 356.398438 988.792969 361.6875 987.683594 367.125 C 965.085938 406.511719 942.890625 446.160156 921.097656 486.0625 C 920.054688 490.585938 921.902344 493.230469 926.644531 493.992188 C 930.773438 492.769531 933.683594 490.128906 935.367188 486.0625 C 964.21875 432.292969 994.078125 379.167969 1024.9375 326.683594 C 1046.792969 318.976562 1056.566406 326.644531 1054.269531 349.679688 C 1030.222656 392.496094 1006.179688 435.316406 982.132812 478.132812 C 983.222656 483.679688 986.390625 485.53125 991.644531 483.683594 C 1026.863281 423.015625 1061.476562 361.960938 1095.488281 300.519531 C 1112.765625 288.941406 1124.128906 293.171875 1129.574219 313.203125 C 1076.253906 413.539062 1021.292969 512.917969 964.695312 611.34375 Z M 964.695312 611.34375 "/>
</g>
<mask id="mask11">
  <g filter="url(#alpha)">
<rect x="0" y="0" width="1625" height="1210" style="fill:rgb(0%,0%,0%);fill-opacity:0.984314;stroke:none;"/>
  </g>
</mask>
<clipPath id="clip12">
  <rect x="0" y="0" width="1625" height="1210"/>
</clipPath>
<g id="surface38" clip-path="url(#clip12)">
<path style=" stroke:none;fill-rule:evenodd;fill:rgb(0%,58.431373%,22.352941%);fill-opacity:1;" d="M 772.867188 601.828125 C 728.476562 601.828125 684.085938 601.828125 639.695312 601.828125 C 608.652344 530.464844 576.941406 459.367188 544.574219 388.53125 C 573.636719 387.472656 602.703125 387.472656 631.769531 388.53125 C 668.878906 400.800781 695.566406 424.851562 711.828125 460.6875 C 732.652344 507.597656 752.996094 554.644531 772.867188 601.828125 Z M 772.867188 601.828125 "/>
</g>
<mask id="mask12">
  <g filter="url(#alpha)">
<rect x="0" y="0" width="1625" height="1210" style="fill:rgb(0%,0%,0%);fill-opacity:0.988235;stroke:none;"/>
  </g>
</mask>
<clipPath id="clip13">
  <rect x="0" y="0" width="1625" height="1210"/>
</clipPath>
<g id="surface41" clip-path="url(#clip13)">
<path style=" stroke:none;fill-rule:evenodd;fill:rgb(0%,57.254902%,21.568627%);fill-opacity:1;" d="M 845.792969 544.738281 C 884.644531 568.140625 924.28125 590.34375 964.695312 611.34375 C 961.925781 617.414062 958.757812 623.226562 955.183594 628.789062 C 915.238281 606.964844 875.601562 584.761719 836.28125 562.183594 C 839.054688 556.101562 842.226562 550.285156 845.792969 544.738281 Z M 845.792969 544.738281 "/>
</g>
<mask id="mask13">
  <g filter="url(#alpha)">
<rect x="0" y="0" width="1625" height="1210" style="fill:rgb(0%,0%,0%);fill-opacity:0.988235;stroke:none;"/>
  </g>
</mask>
<clipPath id="clip14">
  <rect x="0" y="0" width="1625" height="1210"/>
</clipPath>
<g id="surface44" clip-path="url(#clip14)">
<path style=" stroke:none;fill-rule:evenodd;fill:rgb(0%,54.901961%,20.784314%);fill-opacity:1;" d="M 836.28125 562.183594 C 875.601562 584.761719 915.238281 606.964844 955.183594 628.789062 C 951.460938 635.1875 947.761719 641.53125 944.085938 647.816406 C 904.242188 626.566406 864.605469 604.894531 825.183594 582.796875 C 828.257812 575.519531 831.957031 568.648438 836.28125 562.183594 Z M 836.28125 562.183594 "/>
</g>
<mask id="mask14">
  <g filter="url(#alpha)">
<rect x="0" y="0" width="1625" height="1210" style="fill:rgb(0%,0%,0%);fill-opacity:0.988235;stroke:none;"/>
  </g>
</mask>
<clipPath id="clip15">
  <rect x="0" y="0" width="1625" height="1210"/>
</clipPath>
<g id="surface47" clip-path="url(#clip15)">
<path style=" stroke:none;fill-rule:evenodd;fill:rgb(0%,52.54902%,19.607843%);fill-opacity:1;" d="M 825.183594 582.796875 C 864.605469 604.894531 904.242188 626.566406 944.085938 647.816406 C 940.65625 655.746094 936.425781 663.148438 931.402344 670.019531 C 892.550781 646.617188 852.914062 624.414062 812.5 603.414062 C 816.351562 596.21875 820.582031 589.347656 825.183594 582.796875 Z M 825.183594 582.796875 "/>
</g>
<mask id="mask15">
  <g filter="url(#alpha)">
<rect x="0" y="0" width="1625" height="1210" style="fill:rgb(0%,0%,0%);fill-opacity:0.988235;stroke:none;"/>
  </g>
</mask>
<clipPath id="clip16">
  <rect x="0" y="0" width="1625" height="1210"/>
</clipPath>
<g id="surface50" clip-path="url(#clip16)">
<path style=" stroke:none;fill-rule:evenodd;fill:rgb(0%,57.254902%,21.568627%);fill-opacity:1;" d="M 639.695312 601.828125 C 684.085938 601.828125 728.476562 601.828125 772.867188 601.828125 C 777.679688 610.421875 781.90625 619.40625 785.546875 628.789062 C 741.160156 628.789062 696.769531 628.789062 652.378906 628.789062 C 647.769531 620.09375 643.542969 611.109375 639.695312 601.828125 Z M 639.695312 601.828125 "/>
</g>
<mask id="mask16">
  <g filter="url(#alpha)">
<rect x="0" y="0" width="1625" height="1210" style="fill:rgb(0%,0%,0%);fill-opacity:0.988235;stroke:none;"/>
  </g>
</mask>
<clipPath id="clip17">
  <rect x="0" y="0" width="1625" height="1210"/>
</clipPath>
<g id="surface53" clip-path="url(#clip17)">
<path style=" stroke:none;fill-rule:evenodd;fill:rgb(0%,49.803922%,18.823529%);fill-opacity:1;" d="M 812.5 603.414062 C 852.914062 624.414062 892.550781 646.617188 931.402344 670.019531 C 927.445312 679.003906 922.6875 687.460938 917.132812 695.394531 C 878.28125 671.992188 838.648438 649.789062 798.230469 628.789062 C 802.988281 620.332031 807.742188 611.871094 812.5 603.414062 Z M 812.5 603.414062 "/>
</g>
<mask id="mask17">
  <g filter="url(#alpha)">
<rect x="0" y="0" width="1625" height="1210" style="fill:rgb(0%,0%,0%);fill-opacity:0.992157;stroke:none;"/>
  </g>
</mask>
<clipPath id="clip18">
  <rect x="0" y="0" width="1625" height="1210"/>
</clipPath>
<g id="surface56" clip-path="url(#clip18)">
<path style=" stroke:none;fill-rule:evenodd;fill:rgb(0%,54.901961%,20.784314%);fill-opacity:1;" d="M 652.378906 628.789062 C 696.769531 628.789062 741.160156 628.789062 785.546875 628.789062 C 787.285156 632.804688 789.398438 636.503906 791.890625 639.886719 C 793.359375 646.941406 795.472656 653.8125 798.230469 660.503906 C 754.371094 660.503906 710.507812 660.503906 666.644531 660.503906 C 661.082031 650.417969 656.324219 639.84375 652.378906 628.789062 Z M 652.378906 628.789062 "/>
</g>
<mask id="mask18">
  <g filter="url(#alpha)">
<rect x="0" y="0" width="1625" height="1210" style="fill:rgb(0%,0%,0%);fill-opacity:0.992157;stroke:none;"/>
  </g>
</mask>
<clipPath id="clip19">
  <rect x="0" y="0" width="1625" height="1210"/>
</clipPath>
<g id="surface59" clip-path="url(#clip19)">
<path style=" stroke:none;fill-rule:evenodd;fill:rgb(0%,47.45098%,17.647059%);fill-opacity:1;" d="M 798.230469 628.789062 C 838.648438 649.789062 878.28125 671.992188 917.132812 695.394531 C 913.480469 702.765625 909.78125 710.167969 906.035156 717.59375 C 871.066406 697.855469 835.921875 678.296875 800.609375 658.917969 C 799.976562 659.28125 799.714844 659.808594 799.816406 660.503906 C 799.289062 660.503906 798.757812 660.503906 798.230469 660.503906 C 795.472656 653.8125 793.359375 646.941406 791.890625 639.886719 C 794.378906 636.503906 796.496094 632.804688 798.230469 628.789062 Z M 798.230469 628.789062 "/>
</g>
<mask id="mask19">
  <g filter="url(#alpha)">
<rect x="0" y="0" width="1625" height="1210" style="fill:rgb(0%,0%,0%);fill-opacity:0.992157;stroke:none;"/>
  </g>
</mask>
<clipPath id="clip20">
  <rect x="0" y="0" width="1625" height="1210"/>
</clipPath>
<g id="surface62" clip-path="url(#clip20)">
<path style=" stroke:none;fill-rule:evenodd;fill:rgb(0%,45.882353%,17.254902%);fill-opacity:1;" d="M 906.035156 717.59375 C 903.902344 720.824219 901.789062 723.996094 899.695312 727.109375 C 869.222656 710.414062 838.835938 693.5 808.535156 676.363281 C 807.902344 676.726562 807.640625 677.253906 807.742188 677.949219 C 804.207031 672.660156 801.566406 666.84375 799.816406 660.503906 C 799.714844 659.808594 799.976562 659.28125 800.609375 658.917969 C 835.921875 678.296875 871.066406 697.855469 906.035156 717.59375 Z M 906.035156 717.59375 "/>
</g>
<mask id="mask20">
  <g filter="url(#alpha)">
<rect x="0" y="0" width="1625" height="1210" style="fill:rgb(0%,0%,0%);fill-opacity:0.992157;stroke:none;"/>
  </g>
</mask>
<clipPath id="clip21">
  <rect x="0" y="0" width="1625" height="1210"/>
</clipPath>
<g id="surface65" clip-path="url(#clip21)">
<path style=" stroke:none;fill-rule:evenodd;fill:rgb(0%,52.54902%,19.607843%);fill-opacity:1;" d="M 666.644531 660.503906 C 710.507812 660.503906 754.371094 660.503906 798.230469 660.503906 C 798.757812 660.503906 799.289062 660.503906 799.816406 660.503906 C 801.566406 666.84375 804.207031 672.660156 807.742188 677.949219 C 808.875 682.855469 810.460938 687.613281 812.5 692.222656 C 768.109375 692.222656 723.71875 692.222656 679.328125 692.222656 C 675.101562 681.648438 670.875 671.078125 666.644531 660.503906 Z M 666.644531 660.503906 "/>
</g>
<mask id="mask21">
  <g filter="url(#alpha)">
<rect x="0" y="0" width="1625" height="1210" style="fill:rgb(0%,0%,0%);fill-opacity:0.992157;stroke:none;"/>
  </g>
</mask>
<clipPath id="clip22">
  <rect x="0" y="0" width="1625" height="1210"/>
</clipPath>
<g id="surface68" clip-path="url(#clip22)">
<path style=" stroke:none;fill-rule:evenodd;fill:rgb(0%,44.705882%,16.470588%);fill-opacity:1;" d="M 899.695312 727.109375 C 897.675781 732.28125 895.035156 737.039062 891.769531 741.382812 C 868.285156 727.785156 844.503906 714.570312 820.425781 701.738281 C 819.464844 701.933594 818.9375 702.460938 818.839844 703.324219 C 816.726562 699.621094 814.613281 695.921875 812.5 692.222656 C 810.460938 687.613281 808.875 682.855469 807.742188 677.949219 C 807.640625 677.253906 807.902344 676.726562 808.535156 676.363281 C 838.835938 693.5 869.222656 710.414062 899.695312 727.109375 Z M 899.695312 727.109375 "/>
</g>
<mask id="mask22">
  <g filter="url(#alpha)">
<rect x="0" y="0" width="1625" height="1210" style="fill:rgb(0%,0%,0%);fill-opacity:0.992157;stroke:none;"/>
  </g>
</mask>
<clipPath id="clip23">
  <rect x="0" y="0" width="1625" height="1210"/>
</clipPath>
<g id="surface71" clip-path="url(#clip23)">
<path style=" stroke:none;fill-rule:evenodd;fill:rgb(0%,49.803922%,18.823529%);fill-opacity:1;" d="M 679.328125 692.222656 C 723.71875 692.222656 768.109375 692.222656 812.5 692.222656 C 814.613281 695.921875 816.726562 699.621094 818.839844 703.324219 C 821.171875 710.320312 823.816406 717.191406 826.769531 723.9375 C 783.46875 727.097656 739.605469 728.152344 695.183594 727.109375 C 689.898438 715.480469 684.613281 703.851562 679.328125 692.222656 Z M 679.328125 692.222656 "/>
</g>
<mask id="mask23">
  <g filter="url(#alpha)">
<rect x="0" y="0" width="1625" height="1210" style="fill:rgb(0%,0%,0%);fill-opacity:0.988235;stroke:none;"/>
  </g>
</mask>
<clipPath id="clip24">
  <rect x="0" y="0" width="1625" height="1210"/>
</clipPath>
<g id="surface74" clip-path="url(#clip24)">
<path style=" stroke:none;fill-rule:evenodd;fill:rgb(0%,42.745098%,16.078431%);fill-opacity:1;" d="M 891.769531 741.382812 C 887.808594 750.367188 883.054688 758.824219 877.5 766.757812 C 864.496094 759.460938 851.285156 752.585938 837.867188 746.140625 C 834.167969 738.738281 830.46875 731.339844 826.769531 723.9375 C 823.816406 717.191406 821.171875 710.320312 818.839844 703.324219 C 818.9375 702.460938 819.464844 701.933594 820.425781 701.738281 C 844.503906 714.570312 868.285156 727.785156 891.769531 741.382812 Z M 891.769531 741.382812 "/>
</g>
<mask id="mask24">
  <g filter="url(#alpha)">
<rect x="0" y="0" width="1625" height="1210" style="fill:rgb(0%,0%,0%);fill-opacity:0.992157;stroke:none;"/>
  </g>
</mask>
<clipPath id="clip25">
  <rect x="0" y="0" width="1625" height="1210"/>
</clipPath>
<g id="surface77" clip-path="url(#clip25)">
<path style=" stroke:none;fill-rule:evenodd;fill:rgb(0%,47.45098%,17.647059%);fill-opacity:1;" d="M 826.769531 723.9375 C 830.46875 731.339844 834.167969 738.738281 837.867188 746.140625 C 839.378906 749.703125 840.4375 753.402344 841.035156 757.242188 C 797.445312 758.824219 753.585938 759.351562 709.453125 758.828125 C 704.695312 748.253906 699.9375 737.683594 695.183594 727.109375 C 739.605469 728.152344 783.46875 727.097656 826.769531 723.9375 Z M 826.769531 723.9375 "/>
</g>
<mask id="mask25">
  <g filter="url(#alpha)">
<rect x="0" y="0" width="1625" height="1210" style="fill:rgb(0%,0%,0%);fill-opacity:0.972549;stroke:none;"/>
  </g>
</mask>
<clipPath id="clip26">
  <rect x="0" y="0" width="1625" height="1210"/>
</clipPath>
<g id="surface80" clip-path="url(#clip26)">
<path style=" stroke:none;fill-rule:evenodd;fill:rgb(0%,40.784314%,14.901961%);fill-opacity:1;" d="M 837.867188 746.140625 C 851.285156 752.585938 864.496094 759.460938 877.5 766.757812 C 872.214844 777.328125 866.929688 787.898438 861.644531 798.472656 C 859.246094 795.515625 857.132812 792.34375 855.304688 788.957031 C 853.039062 782.847656 850.394531 777.03125 847.378906 771.515625 C 846.519531 766.101562 844.40625 761.34375 841.035156 757.242188 C 840.4375 753.402344 839.378906 749.703125 837.867188 746.140625 Z M 837.867188 746.140625 "/>
</g>
<mask id="mask26">
  <g filter="url(#alpha)">
<rect x="0" y="0" width="1625" height="1210" style="fill:rgb(0%,0%,0%);fill-opacity:0.992157;stroke:none;"/>
  </g>
</mask>
<clipPath id="clip27">
  <rect x="0" y="0" width="1625" height="1210"/>
</clipPath>
<g id="surface83" clip-path="url(#clip27)">
<path style=" stroke:none;fill-rule:evenodd;fill:rgb(0%,45.882353%,16.862745%);fill-opacity:1;" d="M 841.035156 757.242188 C 844.40625 761.34375 846.519531 766.101562 847.378906 771.515625 C 803.515625 771.515625 759.65625 771.515625 715.792969 771.515625 C 712.871094 767.78125 710.757812 763.554688 709.453125 758.828125 C 753.585938 759.351562 797.445312 758.824219 841.035156 757.242188 Z M 841.035156 757.242188 "/>
</g>
<mask id="mask27">
  <g filter="url(#alpha)">
<rect x="0" y="0" width="1625" height="1210" style="fill:rgb(0%,0%,0%);fill-opacity:0.992157;stroke:none;"/>
  </g>
</mask>
<clipPath id="clip28">
  <rect x="0" y="0" width="1625" height="1210"/>
</clipPath>
<g id="surface86" clip-path="url(#clip28)">
<path style=" stroke:none;fill-rule:evenodd;fill:rgb(0%,44.705882%,16.470588%);fill-opacity:1;" d="M 715.792969 771.515625 C 759.65625 771.515625 803.515625 771.515625 847.378906 771.515625 C 850.394531 777.03125 853.039062 782.847656 855.304688 788.957031 C 811.441406 788.957031 767.582031 788.957031 723.71875 788.957031 C 719.832031 783.820312 717.191406 778.003906 715.792969 771.515625 Z M 715.792969 771.515625 "/>
</g>
<mask id="mask28">
  <g filter="url(#alpha)">
<rect x="0" y="0" width="1625" height="1210" style="fill:rgb(0%,0%,0%);fill-opacity:0.937255;stroke:none;"/>
  </g>
</mask>
<clipPath id="clip29">
  <rect x="0" y="0" width="1625" height="1210"/>
</clipPath>
<g id="surface89" clip-path="url(#clip29)">
<path style=" stroke:none;fill-rule:evenodd;fill:rgb(0%,43.529412%,16.078431%);fill-opacity:1;" d="M 723.71875 788.957031 C 767.582031 788.957031 811.441406 788.957031 855.304688 788.957031 C 857.132812 792.34375 859.246094 795.515625 861.644531 798.472656 C 861.644531 800.058594 861.644531 801.644531 861.644531 803.230469 C 817.242188 803.757812 772.851562 803.230469 728.476562 801.644531 C 725.976562 797.714844 724.390625 793.484375 723.71875 788.957031 Z M 723.71875 788.957031 "/>
</g>
<mask id="mask29">
  <g filter="url(#alpha)">
<rect x="0" y="0" width="1625" height="1210" style="fill:rgb(0%,0%,0%);fill-opacity:0.960784;stroke:none;"/>
  </g>
</mask>
<clipPath id="clip30">
  <rect x="0" y="0" width="1625" height="1210"/>
</clipPath>
<g id="surface92" clip-path="url(#clip30)">
<path style=" stroke:none;fill-rule:evenodd;fill:rgb(6.666667%,42.745098%,18.039216%);fill-opacity:1;" d="M 308.355469 876.179688 C 325.871094 875.625 343.308594 876.417969 360.671875 878.558594 C 369.640625 880.136719 375.71875 885.160156 378.902344 893.625 C 379.960938 901.023438 379.960938 908.425781 378.902344 915.824219 C 375.746094 922.152344 370.726562 926.117188 363.839844 927.71875 C 368.117188 928.8125 371.550781 931.191406 374.144531 934.855469 C 377.464844 946.285156 380.898438 957.648438 384.453125 968.953125 C 373.367188 969.746094 362.269531 970.007812 351.160156 969.746094 C 349.320312 958.40625 346.148438 947.570312 341.644531 937.234375 C 337.453125 936.445312 333.222656 936.179688 328.964844 936.441406 C 328.964844 947.542969 328.964844 958.644531 328.964844 969.746094 C 318.921875 969.746094 308.882812 969.746094 298.839844 969.746094 C 298.839844 939.085938 298.839844 908.425781 298.839844 877.765625 C 302.382812 878.234375 305.554688 877.703125 308.355469 876.179688 Z M 328.964844 896.796875 C 335 896.261719 340.8125 897.054688 346.402344 899.175781 C 350.488281 904.574219 350.488281 909.859375 346.402344 915.03125 C 340.613281 915.824219 334.800781 916.085938 328.964844 915.824219 C 328.964844 909.480469 328.964844 903.140625 328.964844 896.796875 Z M 328.964844 896.796875 "/>
</g>
<mask id="mask30">
  <g filter="url(#alpha)">
<rect x="0" y="0" width="1625" height="1210" style="fill:rgb(0%,0%,0%);fill-opacity:0.960784;stroke:none;"/>
  </g>
</mask>
<clipPath id="clip31">
  <rect x="0" y="0" width="1625" height="1210"/>
</clipPath>
<g id="surface95" clip-path="url(#clip31)">
<path style=" stroke:none;fill-rule:evenodd;fill:rgb(6.666667%,42.745098%,18.039216%);fill-opacity:1;" d="M 782.378906 876.179688 C 799.894531 875.625 817.332031 876.417969 834.695312 878.558594 C 843.667969 880.136719 849.746094 885.160156 852.925781 893.625 C 853.984375 901.023438 853.984375 908.425781 852.925781 915.824219 C 849.773438 922.152344 844.75 926.117188 837.867188 927.71875 C 842.140625 928.8125 845.574219 931.191406 848.171875 934.855469 C 851.488281 946.285156 854.921875 957.648438 858.476562 968.953125 C 847.390625 969.746094 836.292969 970.007812 825.183594 969.746094 C 823.34375 958.40625 820.171875 947.570312 815.671875 937.234375 C 811.476562 936.445312 807.246094 936.179688 802.988281 936.441406 C 802.988281 947.542969 802.988281 958.644531 802.988281 969.746094 C 792.949219 969.746094 782.90625 969.746094 772.867188 969.746094 C 772.867188 939.085938 772.867188 908.425781 772.867188 877.765625 C 776.410156 878.234375 779.578125 877.703125 782.378906 876.179688 Z M 802.988281 896.796875 C 809.023438 896.261719 814.835938 897.054688 820.425781 899.175781 C 824.511719 904.574219 824.511719 909.859375 820.425781 915.03125 C 814.636719 915.824219 808.824219 916.085938 802.988281 915.824219 C 802.988281 909.480469 802.988281 903.140625 802.988281 896.796875 Z M 802.988281 896.796875 "/>
</g>
<mask id="mask31">
  <g filter="url(#alpha)">
<rect x="0" y="0" width="1625" height="1210" style="fill:rgb(0%,0%,0%);fill-opacity:0.956863;stroke:none;"/>
  </g>
</mask>
<clipPath id="clip32">
  <rect x="0" y="0" width="1625" height="1210"/>
</clipPath>
<g id="surface98" clip-path="url(#clip32)">
<path style=" stroke:none;fill-rule:evenodd;fill:rgb(6.666667%,42.745098%,18.039216%);fill-opacity:1;" d="M 143.476562 877.765625 C 154.097656 877.242188 164.664062 877.769531 175.183594 879.351562 C 179.917969 901.191406 184.9375 922.863281 190.242188 944.371094 C 195.042969 922.210938 199.535156 900.011719 203.71875 877.765625 C 214.828125 877.503906 225.925781 877.765625 237.011719 878.558594 C 228.410156 908.34375 219.953125 938.210938 211.644531 968.160156 C 196.851562 970.273438 182.050781 970.273438 167.257812 968.160156 C 158.582031 938.203125 150.652344 908.070312 143.476562 877.765625 Z M 143.476562 877.765625 "/>
</g>
<mask id="mask32">
  <g filter="url(#alpha)">
<rect x="0" y="0" width="1625" height="1210" style="fill:rgb(0%,0%,0%);fill-opacity:0.988235;stroke:none;"/>
  </g>
</mask>
<clipPath id="clip33">
  <rect x="0" y="0" width="1625" height="1210"/>
</clipPath>
<g id="surface101" clip-path="url(#clip33)">
<path style=" stroke:none;fill-rule:evenodd;fill:rgb(6.666667%,42.745098%,18.039216%);fill-opacity:1;" d="M 248.109375 877.765625 C 258.148438 877.765625 268.191406 877.765625 278.230469 877.765625 C 278.230469 908.425781 278.230469 939.085938 278.230469 969.746094 C 268.191406 969.746094 258.148438 969.746094 248.109375 969.746094 C 248.109375 939.085938 248.109375 908.425781 248.109375 877.765625 Z M 248.109375 877.765625 "/>
</g>
<mask id="mask33">
  <g filter="url(#alpha)">
<rect x="0" y="0" width="1625" height="1210" style="fill:rgb(0%,0%,0%);fill-opacity:0.984314;stroke:none;"/>
  </g>
</mask>
<clipPath id="clip34">
  <rect x="0" y="0" width="1625" height="1210"/>
</clipPath>
<g id="surface104" clip-path="url(#clip34)">
<path style=" stroke:none;fill-rule:evenodd;fill:rgb(6.666667%,42.745098%,18.039216%);fill-opacity:1;" d="M 389.207031 877.765625 C 416.6875 877.765625 444.167969 877.765625 471.644531 877.765625 C 471.644531 884.636719 471.644531 891.511719 471.644531 898.382812 C 463.191406 898.382812 454.734375 898.382812 446.28125 898.382812 C 446.28125 922.167969 446.28125 945.957031 446.28125 969.746094 C 436.242188 969.746094 426.199219 969.746094 416.160156 969.746094 C 416.160156 945.957031 416.160156 922.167969 416.160156 898.382812 C 407.175781 898.382812 398.191406 898.382812 389.207031 898.382812 C 389.207031 891.511719 389.207031 884.636719 389.207031 877.765625 Z M 389.207031 877.765625 "/>
</g>
<mask id="mask34">
  <g filter="url(#alpha)">
<rect x="0" y="0" width="1625" height="1210" style="fill:rgb(0%,0%,0%);fill-opacity:0.964706;stroke:none;"/>
  </g>
</mask>
<clipPath id="clip35">
  <rect x="0" y="0" width="1625" height="1210"/>
</clipPath>
<g id="surface107" clip-path="url(#clip35)">
<path style=" stroke:none;fill-rule:evenodd;fill:rgb(6.666667%,42.745098%,18.039216%);fill-opacity:1;" d="M 484.328125 877.765625 C 494.371094 877.765625 504.410156 877.765625 514.453125 877.765625 C 513.839844 899.511719 514.632812 921.183594 516.828125 942.785156 C 519.21875 948.234375 523.445312 950.347656 529.511719 949.128906 C 537.632812 950.898438 541.859375 947.726562 542.195312 939.613281 C 542.988281 919.003906 543.253906 898.386719 542.988281 877.765625 C 553.027344 877.765625 563.070312 877.765625 573.109375 877.765625 C 573.375 899.445312 573.109375 921.117188 572.316406 942.785156 C 571.761719 955.476562 565.683594 964.199219 554.085938 968.953125 C 537.175781 972.125 520.265625 972.125 503.355469 968.953125 C 495.691406 965.515625 490.144531 959.964844 486.707031 952.300781 C 484.429688 927.546875 483.636719 902.703125 484.328125 877.765625 Z M 484.328125 877.765625 "/>
</g>
<mask id="mask35">
  <g filter="url(#alpha)">
<rect x="0" y="0" width="1625" height="1210" style="fill:rgb(0%,0%,0%);fill-opacity:0.956863;stroke:none;"/>
  </g>
</mask>
<clipPath id="clip36">
  <rect x="0" y="0" width="1625" height="1210"/>
</clipPath>
<g id="surface110" clip-path="url(#clip36)">
<path style=" stroke:none;fill-rule:evenodd;fill:rgb(6.666667%,42.745098%,18.039216%);fill-opacity:1;" d="M 609.574219 877.765625 C 623.3125 877.765625 637.050781 877.765625 650.792969 877.765625 C 659.28125 908.558594 668.265625 939.21875 677.742188 969.746094 C 667.175781 969.746094 656.605469 969.746094 646.035156 969.746094 C 645.066406 963.480469 643.480469 957.402344 641.28125 951.507812 C 632.839844 950.714844 624.386719 950.449219 615.914062 950.714844 C 614.855469 957.058594 613.800781 963.402344 612.742188 969.746094 C 602.175781 969.746094 591.605469 969.746094 581.035156 969.746094 C 590.226562 939 599.738281 908.339844 609.574219 877.765625 Z M 628.597656 901.554688 C 631.863281 911.152344 635.035156 920.929688 638.109375 930.890625 C 632.320312 931.683594 626.507812 931.945312 620.671875 931.683594 C 623.066406 921.574219 625.707031 911.53125 628.597656 901.554688 Z M 628.597656 901.554688 "/>
</g>
<mask id="mask36">
  <g filter="url(#alpha)">
<rect x="0" y="0" width="1625" height="1210" style="fill:rgb(0%,0%,0%);fill-opacity:0.94902;stroke:none;"/>
  </g>
</mask>
<clipPath id="clip37">
  <rect x="0" y="0" width="1625" height="1210"/>
</clipPath>
<g id="surface113" clip-path="url(#clip37)">
<path style=" stroke:none;fill-rule:evenodd;fill:rgb(6.666667%,42.745098%,18.039216%);fill-opacity:1;" d="M 688.839844 877.765625 C 699.410156 877.765625 709.980469 877.765625 720.546875 877.765625 C 720.546875 901.023438 720.546875 924.28125 720.546875 947.542969 C 732.703125 947.542969 744.855469 947.542969 757.011719 947.542969 C 757.011719 954.945312 757.011719 962.34375 757.011719 969.746094 C 734.289062 969.746094 711.566406 969.746094 688.839844 969.746094 C 688.839844 939.085938 688.839844 908.425781 688.839844 877.765625 Z M 688.839844 877.765625 "/>
</g>
<mask id="mask37">
  <g filter="url(#alpha)">
<rect x="0" y="0" width="1625" height="1210" style="fill:rgb(0%,0%,0%);fill-opacity:0.792157;stroke:none;"/>
  </g>
</mask>
<clipPath id="clip38">
  <rect x="0" y="0" width="1625" height="1210"/>
</clipPath>
<g id="surface116" clip-path="url(#clip38)">
<path style=" stroke:none;fill-rule:evenodd;fill:rgb(6.666667%,42.745098%,18.039216%);fill-opacity:1;" d="M 1229.453125 877.765625 C 1243.796875 876.441406 1255.953125 880.671875 1265.914062 890.453125 C 1265.988281 892.832031 1264.933594 894.417969 1262.742188 895.210938 C 1249.523438 883.824219 1235.253906 881.972656 1219.9375 889.660156 C 1210.574219 896.652344 1210.046875 904.050781 1218.355469 911.859375 C 1229.523438 916.953125 1241.148438 920.652344 1253.230469 922.960938 C 1271.832031 931.328125 1275.53125 944.015625 1264.328125 961.023438 C 1245.9375 972.589844 1227.441406 972.589844 1208.839844 961.023438 C 1205.890625 959.390625 1203.777344 957.011719 1202.5 953.886719 C 1203.113281 951.953125 1204.433594 950.894531 1206.464844 950.714844 C 1219.234375 961.773438 1233.769531 965.207031 1250.0625 961.023438 C 1265.445312 954.042969 1267.558594 944.53125 1256.402344 932.476562 C 1246.296875 927.835938 1235.730469 924.664062 1224.695312 922.960938 C 1205.542969 915.707031 1201.316406 903.546875 1212.011719 886.488281 C 1217.546875 882.664062 1223.359375 879.753906 1229.453125 877.765625 Z M 1229.453125 877.765625 "/>
</g>
<mask id="mask38">
  <g filter="url(#alpha)">
<rect x="0" y="0" width="1625" height="1210" style="fill:rgb(0%,0%,0%);fill-opacity:0.803922;stroke:none;"/>
  </g>
</mask>
<clipPath id="clip39">
  <rect x="0" y="0" width="1625" height="1210"/>
</clipPath>
<g id="surface119" clip-path="url(#clip39)">
<path style=" stroke:none;fill-rule:evenodd;fill:rgb(6.666667%,42.745098%,18.039216%);fill-opacity:1;" d="M 901.28125 879.351562 C 905.324219 879.449219 907.703125 881.5625 908.414062 885.695312 C 917.609375 909.371094 927.648438 932.632812 938.535156 955.472656 C 945.40625 939.085938 952.277344 922.695312 959.144531 906.3125 C 959.695312 903.644531 961.28125 902.0625 963.902344 901.554688 C 967.113281 903.171875 969.226562 905.8125 970.242188 909.480469 C 976.894531 924.683594 983.234375 940.011719 989.269531 955.472656 C 1000.441406 931.472656 1011.011719 907.15625 1020.976562 882.523438 C 1022.734375 880.085938 1025.113281 879.03125 1028.109375 879.351562 C 1028.234375 883.746094 1027.441406 887.972656 1025.730469 892.039062 C 1014.742188 917.347656 1003.910156 942.71875 993.230469 968.160156 C 990.84375 970.136719 988.464844 970.136719 986.097656 968.160156 C 979.136719 950.53125 971.738281 933.085938 963.902344 915.824219 C 956.195312 933.140625 948.796875 950.585938 941.707031 968.160156 C 939.339844 970.136719 936.960938 970.136719 934.574219 968.160156 C 923.210938 941.199219 911.851562 914.238281 900.488281 887.28125 C 899.472656 884.480469 899.738281 881.835938 901.28125 879.351562 Z M 901.28125 879.351562 "/>
</g>
<mask id="mask39">
  <g filter="url(#alpha)">
<rect x="0" y="0" width="1625" height="1210" style="fill:rgb(0%,0%,0%);fill-opacity:0.988235;stroke:none;"/>
  </g>
</mask>
<clipPath id="clip40">
  <rect x="0" y="0" width="1625" height="1210"/>
</clipPath>
<g id="surface122" clip-path="url(#clip40)">
<path style=" stroke:none;fill-rule:evenodd;fill:rgb(6.666667%,42.745098%,18.039216%);fill-opacity:1;" d="M 1047.132812 879.351562 C 1064.574219 879.351562 1082.011719 879.351562 1099.453125 879.351562 C 1099.453125 881.464844 1099.453125 883.582031 1099.453125 885.695312 C 1084.125 885.695312 1068.800781 885.695312 1053.476562 885.695312 C 1053.476562 897.851562 1053.476562 910.011719 1053.476562 922.167969 C 1067.214844 922.167969 1080.953125 922.167969 1094.695312 922.167969 C 1094.695312 924.28125 1094.695312 926.398438 1094.695312 928.511719 C 1080.953125 928.511719 1067.214844 928.511719 1053.476562 928.511719 C 1053.476562 940.140625 1053.476562 951.773438 1053.476562 963.402344 C 1068.800781 963.402344 1084.125 963.402344 1099.453125 963.402344 C 1099.453125 965.515625 1099.453125 967.628906 1099.453125 969.746094 C 1082.011719 969.746094 1064.574219 969.746094 1047.132812 969.746094 C 1047.132812 939.613281 1047.132812 909.480469 1047.132812 879.351562 Z M 1047.132812 879.351562 "/>
</g>
<mask id="mask40">
  <g filter="url(#alpha)">
<rect x="0" y="0" width="1625" height="1210" style="fill:rgb(0%,0%,0%);fill-opacity:0.913725;stroke:none;"/>
  </g>
</mask>
<clipPath id="clip41">
  <rect x="0" y="0" width="1625" height="1210"/>
</clipPath>
<g id="surface125" clip-path="url(#clip41)">
<path style=" stroke:none;fill-rule:evenodd;fill:rgb(6.666667%,42.745098%,18.039216%);fill-opacity:1;" d="M 1127.988281 879.351562 C 1138.570312 879.089844 1149.140625 879.351562 1159.695312 880.144531 C 1172.070312 886.140625 1176.558594 895.917969 1173.171875 909.480469 C 1171.914062 912.792969 1170.066406 915.699219 1167.621094 918.203125 C 1183.847656 928.039062 1187.808594 941.519531 1179.511719 958.644531 C 1175.921875 963.292969 1171.429688 966.730469 1166.035156 968.953125 C 1153.363281 969.746094 1140.683594 970.007812 1127.988281 969.746094 C 1127.988281 939.613281 1127.988281 909.480469 1127.988281 879.351562 Z M 1134.328125 885.695312 C 1142.414062 885.179688 1150.339844 885.972656 1158.109375 888.074219 C 1170.792969 897.058594 1170.792969 906.046875 1158.109375 915.03125 C 1150.339844 917.132812 1142.414062 917.925781 1134.328125 917.410156 C 1134.328125 906.839844 1134.328125 896.265625 1134.328125 885.695312 Z M 1134.328125 923.753906 C 1144.515625 923.167969 1154.554688 923.960938 1164.453125 926.132812 C 1181.363281 937.761719 1181.363281 949.394531 1164.453125 961.023438 C 1154.554688 963.195312 1144.515625 963.988281 1134.328125 963.402344 C 1134.328125 950.1875 1134.328125 936.96875 1134.328125 923.753906 Z M 1134.328125 923.753906 "/>
</g>
<mask id="mask41">
  <g filter="url(#alpha)">
<rect x="0" y="0" width="1625" height="1210" style="fill:rgb(0%,0%,0%);fill-opacity:0.984314;stroke:none;"/>
  </g>
</mask>
<clipPath id="clip42">
  <rect x="0" y="0" width="1625" height="1210"/>
</clipPath>
<g id="surface128" clip-path="url(#clip42)">
<path style=" stroke:none;fill-rule:evenodd;fill:rgb(6.666667%,42.745098%,18.039216%);fill-opacity:1;" d="M 1299.207031 879.351562 C 1301.320312 879.351562 1303.433594 879.351562 1305.546875 879.351562 C 1305.546875 909.480469 1305.546875 939.613281 1305.546875 969.746094 C 1303.433594 969.746094 1301.320312 969.746094 1299.207031 969.746094 C 1299.207031 939.613281 1299.207031 909.480469 1299.207031 879.351562 Z M 1299.207031 879.351562 "/>
</g>
<mask id="mask42">
  <g filter="url(#alpha)">
<rect x="0" y="0" width="1625" height="1210" style="fill:rgb(0%,0%,0%);fill-opacity:0.984314;stroke:none;"/>
  </g>
</mask>
<clipPath id="clip43">
  <rect x="0" y="0" width="1625" height="1210"/>
</clipPath>
<g id="surface131" clip-path="url(#clip43)">
<path style=" stroke:none;fill-rule:evenodd;fill:rgb(6.666667%,42.745098%,18.039216%);fill-opacity:1;" d="M 1334.085938 879.351562 C 1356.28125 879.351562 1378.476562 879.351562 1400.671875 879.351562 C 1400.671875 881.464844 1400.671875 883.582031 1400.671875 885.695312 C 1390.628906 885.695312 1380.589844 885.695312 1370.546875 885.695312 C 1370.546875 913.710938 1370.546875 941.726562 1370.546875 969.746094 C 1368.433594 969.746094 1366.320312 969.746094 1364.207031 969.746094 C 1364.207031 941.726562 1364.207031 913.710938 1364.207031 885.695312 C 1354.167969 885.695312 1344.125 885.695312 1334.085938 885.695312 C 1334.085938 883.582031 1334.085938 881.464844 1334.085938 879.351562 Z M 1334.085938 879.351562 "/>
</g>
<mask id="mask43">
  <g filter="url(#alpha)">
<rect x="0" y="0" width="1625" height="1210" style="fill:rgb(0%,0%,0%);fill-opacity:0.988235;stroke:none;"/>
  </g>
</mask>
<clipPath id="clip44">
  <rect x="0" y="0" width="1625" height="1210"/>
</clipPath>
<g id="surface134" clip-path="url(#clip44)">
<path style=" stroke:none;fill-rule:evenodd;fill:rgb(6.666667%,42.745098%,18.039216%);fill-opacity:1;" d="M 1427.621094 879.351562 C 1445.0625 879.351562 1462.5 879.351562 1479.9375 879.351562 C 1479.9375 881.464844 1479.9375 883.582031 1479.9375 885.695312 C 1464.613281 885.695312 1449.289062 885.695312 1433.964844 885.695312 C 1433.964844 897.851562 1433.964844 910.011719 1433.964844 922.167969 C 1447.703125 922.167969 1461.441406 922.167969 1475.183594 922.167969 C 1475.183594 924.28125 1475.183594 926.398438 1475.183594 928.511719 C 1461.441406 928.511719 1447.703125 928.511719 1433.964844 928.511719 C 1433.964844 940.140625 1433.964844 951.773438 1433.964844 963.402344 C 1449.289062 963.402344 1464.613281 963.402344 1479.9375 963.402344 C 1479.9375 965.515625 1479.9375 967.628906 1479.9375 969.746094 C 1462.5 969.746094 1445.0625 969.746094 1427.621094 969.746094 C 1427.621094 939.613281 1427.621094 909.480469 1427.621094 879.351562 Z M 1427.621094 879.351562 "/>
</g>
</defs>
<g id="surface1">
<use xlink:href="#surface5" mask="url(#mask0)"/>
<use xlink:href="#surface8" mask="url(#mask1)"/>
<use xlink:href="#surface11" mask="url(#mask2)"/>
<use xlink:href="#surface14" mask="url(#mask3)"/>
<use xlink:href="#surface17" mask="url(#mask4)"/>
<use xlink:href="#surface20" mask="url(#mask5)"/>
<use xlink:href="#surface23" mask="url(#mask6)"/>
<use xlink:href="#surface26" mask="url(#mask7)"/>
<use xlink:href="#surface29" mask="url(#mask8)"/>
<use xlink:href="#surface32" mask="url(#mask9)"/>
<use xlink:href="#surface35" mask="url(#mask10)"/>
<use xlink:href="#surface38" mask="url(#mask11)"/>
<use xlink:href="#surface41" mask="url(#mask12)"/>
<use xlink:href="#surface44" mask="url(#mask13)"/>
<use xlink:href="#surface47" mask="url(#mask14)"/>
<use xlink:href="#surface50" mask="url(#mask15)"/>
<use xlink:href="#surface53" mask="url(#mask16)"/>
<use xlink:href="#surface56" mask="url(#mask17)"/>
<use xlink:href="#surface59" mask="url(#mask18)"/>
<use xlink:href="#surface62" mask="url(#mask19)"/>
<use xlink:href="#surface65" mask="url(#mask20)"/>
<use xlink:href="#surface68" mask="url(#mask21)"/>
<use xlink:href="#surface71" mask="url(#mask22)"/>
<use xlink:href="#surface74" mask="url(#mask23)"/>
<use xlink:href="#surface77" mask="url(#mask24)"/>
<use xlink:href="#surface80" mask="url(#mask25)"/>
<use xlink:href="#surface83" mask="url(#mask26)"/>
<use xlink:href="#surface86" mask="url(#mask27)"/>
<use xlink:href="#surface89" mask="url(#mask28)"/>
<use xlink:href="#surface92" mask="url(#mask29)"/>
<use xlink:href="#surface95" mask="url(#mask30)"/>
<use xlink:href="#surface98" mask="url(#mask31)"/>
<use xlink:href="#surface101" mask="url(#mask32)"/>
<use xlink:href="#surface104" mask="url(#mask33)"/>
<use xlink:href="#surface107" mask="url(#mask34)"/>
<use xlink:href="#surface110" mask="url(#mask35)"/>
<use xlink:href="#surface113" mask="url(#mask36)"/>
<use xlink:href="#surface116" mask="url(#mask37)"/>
<use xlink:href="#surface119" mask="url(#mask38)"/>
<use xlink:href="#surface122" mask="url(#mask39)"/>
<use xlink:href="#surface125" mask="url(#mask40)"/>
<use xlink:href="#surface128" mask="url(#mask41)"/>
<use xlink:href="#surface131" mask="url(#mask42)"/>
<use xlink:href="#surface134" mask="url(#mask43)"/>
</g>
</svg>
