<?xml version="1.0" encoding="UTF-8"?>
<!DOCTYPE svg PUBLIC "-//W3C//DTD SVG 1.1//EN" "http://www.w3.org/Graphics/SVG/1.1/DTD/svg11.dtd">
<svg xmlns="http://www.w3.org/2000/svg" version="1.1" width="1025px" height="763px" style="shape-rendering:geometricPrecision; text-rendering:geometricPrecision; image-rendering:optimizeQuality; fill-rule:evenodd; clip-rule:evenodd" xmlns:xlink="http://www.w3.org/1999/xlink">
<g><path style="opacity:0.969" fill="#006826" d="M 713.5,151.5 C 713.5,160.167 713.5,168.833 713.5,177.5C 712.5,177.5 711.5,177.5 710.5,177.5C 710.5,169.167 710.5,160.833 710.5,152.5C 711.209,151.596 712.209,151.263 713.5,151.5 Z"/></g>
<g><path style="opacity:0.981" fill="#005f23" d="M 713.5,151.5 C 714.167,151.5 714.833,151.5 715.5,151.5C 715.5,160.167 715.5,168.833 715.5,177.5C 714.833,177.5 714.167,177.5 713.5,177.5C 713.5,168.833 713.5,160.167 713.5,151.5 Z"/></g>
<g><path style="opacity:0.975" fill="#005920" d="M 715.5,151.5 C 716.167,151.5 716.833,151.5 717.5,151.5C 717.5,160.167 717.5,168.833 717.5,177.5C 716.833,177.5 716.167,177.5 715.5,177.5C 715.5,168.833 715.5,160.167 715.5,151.5 Z"/></g>
<g><path style="opacity:0.97" fill="#00541e" d="M 717.5,151.5 C 718.391,152.11 719.391,152.443 720.5,152.5C 720.5,160.5 720.5,168.5 720.5,176.5C 719.609,177.11 718.609,177.443 717.5,177.5C 717.5,168.833 717.5,160.167 717.5,151.5 Z"/></g>
<g><path style="opacity:0.943" fill="#004e1c" d="M 720.5,152.5 C 721.5,152.833 722.167,153.5 722.5,154.5C 722.5,161.5 722.5,168.5 722.5,175.5C 721.833,175.833 721.167,176.167 720.5,176.5C 720.5,168.5 720.5,160.5 720.5,152.5 Z"/></g>
<g><path style="opacity:0.959" fill="#00762c" d="M 710.5,152.5 C 710.5,160.833 710.5,169.167 710.5,177.5C 709.29,177.068 708.29,176.401 707.5,175.5C 707.5,168.167 707.5,160.833 707.5,153.5C 708.391,152.89 709.391,152.557 710.5,152.5 Z"/></g>
<g><path style="opacity:0.911" fill="#008432" d="M 707.5,153.5 C 707.5,160.833 707.5,168.167 707.5,175.5C 705.5,175.5 704.5,174.5 704.5,172.5C 704.5,167.167 704.5,161.833 704.5,156.5C 705.167,155.167 706.167,154.167 707.5,153.5 Z"/></g>
<g><path style="opacity:0.928" fill="#004118" d="M 722.5,154.5 C 723.5,154.833 724.167,155.5 724.5,156.5C 724.5,162.167 724.5,167.833 724.5,173.5C 724.167,174.5 723.5,175.167 722.5,175.5C 722.5,168.5 722.5,161.5 722.5,154.5 Z"/></g>
<g><path style="opacity:0.887" fill="#003614" d="M 724.5,156.5 C 726.927,158.508 727.927,161.174 727.5,164.5C 727.864,168.052 726.864,171.052 724.5,173.5C 724.5,167.833 724.5,162.167 724.5,156.5 Z"/></g>
<g><path style="opacity:0.495" fill="#009337" d="M 704.5,156.5 C 704.5,161.833 704.5,167.167 704.5,172.5C 702.106,170.668 701.106,168.168 701.5,165C 701.273,161.642 702.273,158.809 704.5,156.5 Z"/></g>
<g><path style="opacity:0.967" fill="#009539" d="M 608.5,385.5 C 583.007,372.257 558.007,358.257 533.5,343.5C 556.522,301.288 580.188,259.455 604.5,218C 611.296,214.324 617.129,215.49 622,221.5C 623.368,224.738 623.701,228.072 623,231.5C 608.747,256.338 594.747,281.338 581,306.5C 580.341,309.353 581.508,311.02 584.5,311.5C 587.104,310.731 588.938,309.064 590,306.5C 608.2,272.595 627.033,239.095 646.5,206C 660.284,201.14 666.45,205.974 665,220.5C 649.833,247.5 634.667,274.5 619.5,301.5C 620.186,304.998 622.186,306.165 625.5,305C 647.713,266.744 669.546,228.244 691,189.5C 701.899,182.201 709.066,184.868 712.5,197.5C 678.867,260.768 644.2,323.435 608.5,385.5 Z"/></g>
<g><path style="opacity:0.986" fill="#009539" d="M 487.5,379.5 C 459.5,379.5 431.5,379.5 403.5,379.5C 383.918,334.5 363.918,289.667 343.5,245C 361.833,244.333 380.167,244.333 398.5,245C 421.909,252.737 438.743,267.903 449,290.5C 462.134,320.079 474.967,349.746 487.5,379.5 Z"/></g>
<g><path style="opacity:0.988" fill="#009237" d="M 533.5,343.5 C 558.007,358.257 583.007,372.257 608.5,385.5C 606.754,389.327 604.754,392.993 602.5,396.5C 577.303,382.738 552.303,368.738 527.5,354.5C 529.25,350.665 531.25,346.999 533.5,343.5 Z"/></g>
<g><path style="opacity:0.988" fill="#008c35" d="M 527.5,354.5 C 552.303,368.738 577.303,382.738 602.5,396.5C 600.152,400.535 597.818,404.535 595.5,408.5C 570.367,395.1 545.367,381.433 520.5,367.5C 522.439,362.91 524.773,358.577 527.5,354.5 Z"/></g>
<g><path style="opacity:0.988" fill="#008632" d="M 520.5,367.5 C 545.367,381.433 570.367,395.1 595.5,408.5C 593.336,413.5 590.669,418.167 587.5,422.5C 562.993,407.743 537.993,393.743 512.5,380.5C 514.93,375.963 517.597,371.63 520.5,367.5 Z"/></g>
<g><path style="opacity:0.987" fill="#009237" d="M 403.5,379.5 C 431.5,379.5 459.5,379.5 487.5,379.5C 490.537,384.918 493.203,390.584 495.5,396.5C 467.5,396.5 439.5,396.5 411.5,396.5C 408.594,391.019 405.928,385.352 403.5,379.5 Z"/></g>
<g><path style="opacity:0.988" fill="#007f30" d="M 512.5,380.5 C 537.993,393.743 562.993,407.743 587.5,422.5C 585.003,428.165 582.003,433.498 578.5,438.5C 553.993,423.743 528.993,409.743 503.5,396.5C 506.5,391.167 509.5,385.833 512.5,380.5 Z"/></g>
<g><path style="opacity:0.991" fill="#008c35" d="M 411.5,396.5 C 439.5,396.5 467.5,396.5 495.5,396.5C 496.596,399.032 497.929,401.365 499.5,403.5C 500.427,407.947 501.76,412.281 503.5,416.5C 475.833,416.5 448.167,416.5 420.5,416.5C 416.989,410.139 413.989,403.472 411.5,396.5 Z"/></g>
<g><path style="opacity:0.991" fill="#00792d" d="M 503.5,396.5 C 528.993,409.743 553.993,423.743 578.5,438.5C 576.196,443.15 573.863,447.817 571.5,452.5C 549.441,440.052 527.274,427.719 505,415.5C 504.601,415.728 504.435,416.062 504.5,416.5C 504.167,416.5 503.833,416.5 503.5,416.5C 501.76,412.281 500.427,407.947 499.5,403.5C 501.071,401.365 502.404,399.032 503.5,396.5 Z"/></g>
<g><path style="opacity:0.993" fill="#00752c" d="M 571.5,452.5 C 570.154,454.537 568.82,456.537 567.5,458.5C 548.28,447.972 529.113,437.306 510,426.5C 509.601,426.728 509.435,427.062 509.5,427.5C 507.269,424.164 505.603,420.497 504.5,416.5C 504.435,416.062 504.601,415.728 505,415.5C 527.274,427.719 549.441,440.052 571.5,452.5 Z"/></g>
<g><path style="opacity:0.994" fill="#008632" d="M 420.5,416.5 C 448.167,416.5 475.833,416.5 503.5,416.5C 503.833,416.5 504.167,416.5 504.5,416.5C 505.603,420.497 507.269,424.164 509.5,427.5C 510.213,430.594 511.213,433.594 512.5,436.5C 484.5,436.5 456.5,436.5 428.5,436.5C 425.833,429.833 423.167,423.167 420.5,416.5 Z"/></g>
<g><path style="opacity:0.991" fill="#00722a" d="M 567.5,458.5 C 566.226,461.76 564.56,464.76 562.5,467.5C 547.688,458.925 532.688,450.592 517.5,442.5C 516.893,442.624 516.56,442.957 516.5,443.5C 515.167,441.167 513.833,438.833 512.5,436.5C 511.213,433.594 510.213,430.594 509.5,427.5C 509.435,427.062 509.601,426.728 510,426.5C 529.113,437.306 548.28,447.972 567.5,458.5 Z"/></g>
<g><path style="opacity:0.993" fill="#007f30" d="M 428.5,436.5 C 456.5,436.5 484.5,436.5 512.5,436.5C 513.833,438.833 515.167,441.167 516.5,443.5C 517.97,447.912 519.637,452.245 521.5,456.5C 494.187,458.492 466.52,459.158 438.5,458.5C 435.167,451.167 431.833,443.833 428.5,436.5 Z"/></g>
<g><path style="opacity:0.987" fill="#006d29" d="M 562.5,467.5 C 560.003,473.165 557.003,478.498 553.5,483.5C 545.297,478.899 536.964,474.565 528.5,470.5C 526.167,465.833 523.833,461.167 521.5,456.5C 519.637,452.245 517.97,447.912 516.5,443.5C 516.56,442.957 516.893,442.624 517.5,442.5C 532.688,450.592 547.688,458.925 562.5,467.5 Z"/></g>
<g><path style="opacity:0.994" fill="#00792d" d="M 521.5,456.5 C 523.833,461.167 526.167,465.833 528.5,470.5C 529.455,472.746 530.122,475.079 530.5,477.5C 503.005,478.498 475.338,478.831 447.5,478.5C 444.5,471.833 441.5,465.167 438.5,458.5C 466.52,459.158 494.187,458.492 521.5,456.5 Z"/></g>
<g><path style="opacity:0.973" fill="#006826" d="M 528.5,470.5 C 536.964,474.565 545.297,478.899 553.5,483.5C 550.167,490.167 546.833,496.833 543.5,503.5C 541.986,501.636 540.653,499.636 539.5,497.5C 538.07,493.646 536.403,489.979 534.5,486.5C 533.958,483.088 532.625,480.088 530.5,477.5C 530.122,475.079 529.455,472.746 528.5,470.5 Z"/></g>
<g><path style="opacity:0.993" fill="#00752b" d="M 530.5,477.5 C 532.625,480.088 533.958,483.088 534.5,486.5C 506.833,486.5 479.167,486.5 451.5,486.5C 449.657,484.147 448.323,481.48 447.5,478.5C 475.338,478.831 503.005,478.498 530.5,477.5 Z"/></g>
<g><path style="opacity:0.994" fill="#00722a" d="M 451.5,486.5 C 479.167,486.5 506.833,486.5 534.5,486.5C 536.403,489.979 538.07,493.646 539.5,497.5C 511.833,497.5 484.167,497.5 456.5,497.5C 454.049,494.26 452.382,490.593 451.5,486.5 Z"/></g>
<g><path style="opacity:0.938" fill="#006f29" d="M 456.5,497.5 C 484.167,497.5 511.833,497.5 539.5,497.5C 540.653,499.636 541.986,501.636 543.5,503.5C 543.5,504.5 543.5,505.5 543.5,506.5C 515.492,506.833 487.492,506.5 459.5,505.5C 457.924,503.021 456.924,500.354 456.5,497.5 Z"/></g>
<g><path style="opacity:0.961" fill="#116d2e" d="M 194.5,552.5 C 205.549,552.15 216.549,552.65 227.5,554C 233.159,554.996 236.993,558.162 239,563.5C 239.667,568.167 239.667,572.833 239,577.5C 237.01,581.49 233.843,583.99 229.5,585C 232.196,585.69 234.363,587.19 236,589.5C 238.093,596.707 240.259,603.873 242.5,611C 235.508,611.5 228.508,611.666 221.5,611.5C 220.34,604.351 218.34,597.518 215.5,591C 212.854,590.503 210.187,590.336 207.5,590.5C 207.5,597.5 207.5,604.5 207.5,611.5C 201.167,611.5 194.833,611.5 188.5,611.5C 188.5,592.167 188.5,572.833 188.5,553.5C 190.735,553.795 192.735,553.461 194.5,552.5 Z M 207.5,565.5 C 211.308,565.163 214.974,565.663 218.5,567C 221.077,570.405 221.077,573.738 218.5,577C 214.848,577.499 211.182,577.665 207.5,577.5C 207.5,573.5 207.5,569.5 207.5,565.5 Z"/></g>
<g><path style="opacity:0.961" fill="#116d2e" d="M 493.5,552.5 C 504.549,552.15 515.549,552.65 526.5,554C 532.159,554.996 535.993,558.162 538,563.5C 538.667,568.167 538.667,572.833 538,577.5C 536.01,581.49 532.843,583.99 528.5,585C 531.196,585.69 533.363,587.19 535,589.5C 537.093,596.707 539.259,603.873 541.5,611C 534.508,611.5 527.508,611.666 520.5,611.5C 519.34,604.351 517.34,597.518 514.5,591C 511.854,590.503 509.187,590.336 506.5,590.5C 506.5,597.5 506.5,604.5 506.5,611.5C 500.167,611.5 493.833,611.5 487.5,611.5C 487.5,592.167 487.5,572.833 487.5,553.5C 489.735,553.795 491.735,553.461 493.5,552.5 Z M 506.5,565.5 C 510.308,565.163 513.974,565.663 517.5,567C 520.077,570.405 520.077,573.738 517.5,577C 513.848,577.499 510.182,577.665 506.5,577.5C 506.5,573.5 506.5,569.5 506.5,565.5 Z"/></g>
<g><path style="opacity:0.955" fill="#116d2e" d="M 90.5,553.5 C 97.1998,553.17 103.866,553.503 110.5,554.5C 113.486,568.272 116.652,581.938 120,595.5C 123.028,581.527 125.861,567.527 128.5,553.5C 135.508,553.334 142.508,553.5 149.5,554C 144.074,572.783 138.74,591.616 133.5,610.5C 124.167,611.833 114.833,611.833 105.5,610.5C 100.028,591.61 95.0276,572.61 90.5,553.5 Z"/></g>
<g><path style="opacity:0.987" fill="#116d2e" d="M 156.5,553.5 C 162.833,553.5 169.167,553.5 175.5,553.5C 175.5,572.833 175.5,592.167 175.5,611.5C 169.167,611.5 162.833,611.5 156.5,611.5C 156.5,592.167 156.5,572.833 156.5,553.5 Z"/></g>
<g><path style="opacity:0.986" fill="#116d2e" d="M 245.5,553.5 C 262.833,553.5 280.167,553.5 297.5,553.5C 297.5,557.833 297.5,562.167 297.5,566.5C 292.167,566.5 286.833,566.5 281.5,566.5C 281.5,581.5 281.5,596.5 281.5,611.5C 275.167,611.5 268.833,611.5 262.5,611.5C 262.5,596.5 262.5,581.5 262.5,566.5C 256.833,566.5 251.167,566.5 245.5,566.5C 245.5,562.167 245.5,557.833 245.5,553.5 Z"/></g>
<g><path style="opacity:0.964" fill="#116d2e" d="M 305.5,553.5 C 311.833,553.5 318.167,553.5 324.5,553.5C 324.115,567.212 324.615,580.879 326,594.5C 327.506,597.937 330.173,599.27 334,598.5C 339.122,599.617 341.789,597.617 342,592.5C 342.5,579.504 342.667,566.504 342.5,553.5C 348.833,553.5 355.167,553.5 361.5,553.5C 361.667,567.171 361.5,580.837 361,594.5C 360.65,602.504 356.816,608.004 349.5,611C 338.833,613 328.167,613 317.5,611C 312.667,608.833 309.167,605.333 307,600.5C 305.563,584.891 305.063,569.224 305.5,553.5 Z"/></g>
<g><path style="opacity:0.958" fill="#116d2e" d="M 384.5,553.5 C 393.167,553.5 401.833,553.5 410.5,553.5C 415.855,572.918 421.521,592.251 427.5,611.5C 420.833,611.5 414.167,611.5 407.5,611.5C 406.888,607.55 405.888,603.717 404.5,600C 399.177,599.501 393.844,599.334 388.5,599.5C 387.833,603.5 387.167,607.5 386.5,611.5C 379.833,611.5 373.167,611.5 366.5,611.5C 372.296,592.113 378.296,572.779 384.5,553.5 Z M 396.5,568.5 C 398.561,574.553 400.561,580.719 402.5,587C 398.848,587.499 395.182,587.665 391.5,587.5C 393.011,581.124 394.677,574.791 396.5,568.5 Z"/></g>
<g><path style="opacity:0.948" fill="#116d2e" d="M 434.5,553.5 C 441.167,553.5 447.833,553.5 454.5,553.5C 454.5,568.167 454.5,582.833 454.5,597.5C 462.167,597.5 469.833,597.5 477.5,597.5C 477.5,602.167 477.5,606.833 477.5,611.5C 463.167,611.5 448.833,611.5 434.5,611.5C 434.5,592.167 434.5,572.833 434.5,553.5 Z"/></g>
<g><path style="opacity:0.791" fill="#116d2e" d="M 775.5,553.5 C 784.55,552.666 792.216,555.332 798.5,561.5C 798.547,563 797.881,564 796.5,564.5C 788.161,557.32 779.161,556.154 769.5,561C 763.594,565.409 763.26,570.075 768.5,575C 775.546,578.21 782.879,580.543 790.5,582C 802.233,587.276 804.566,595.276 797.5,606C 785.899,613.294 774.232,613.294 762.5,606C 760.639,604.972 759.305,603.472 758.5,601.5C 758.887,600.28 759.72,599.613 761,599.5C 769.056,606.473 778.223,608.639 788.5,606C 798.204,601.6 799.537,595.6 792.5,588C 786.126,585.073 779.46,583.073 772.5,582C 760.42,577.425 757.754,569.758 764.5,559C 767.99,556.588 771.657,554.755 775.5,553.5 Z"/></g>
<g><path style="opacity:0.803" fill="#116d2e" d="M 568.5,554.5 C 571.05,554.561 572.55,555.894 573,558.5C 578.8,573.43 585.133,588.097 592,602.5C 596.333,592.167 600.667,581.833 605,571.5C 605.347,569.82 606.347,568.82 608,568.5C 610.026,569.52 611.359,571.187 612,573.5C 616.195,583.086 620.195,592.752 624,602.5C 631.048,587.366 637.714,572.033 644,556.5C 645.11,554.963 646.61,554.297 648.5,554.5C 648.579,557.271 648.079,559.937 647,562.5C 640.069,578.459 633.236,594.459 626.5,610.5C 624.994,611.747 623.494,611.747 622,610.5C 617.609,599.384 612.942,588.384 608,577.5C 603.138,588.418 598.472,599.418 594,610.5C 592.506,611.747 591.006,611.747 589.5,610.5C 582.333,593.5 575.167,576.5 568,559.5C 567.36,557.735 567.527,556.068 568.5,554.5 Z"/></g>
<g><path style="opacity:0.987" fill="#116d2e" d="M 660.5,554.5 C 671.5,554.5 682.5,554.5 693.5,554.5C 693.5,555.833 693.5,557.167 693.5,558.5C 683.833,558.5 674.167,558.5 664.5,558.5C 664.5,566.167 664.5,573.833 664.5,581.5C 673.167,581.5 681.833,581.5 690.5,581.5C 690.5,582.833 690.5,584.167 690.5,585.5C 681.833,585.5 673.167,585.5 664.5,585.5C 664.5,592.833 664.5,600.167 664.5,607.5C 674.167,607.5 683.833,607.5 693.5,607.5C 693.5,608.833 693.5,610.167 693.5,611.5C 682.5,611.5 671.5,611.5 660.5,611.5C 660.5,592.5 660.5,573.5 660.5,554.5 Z"/></g>
<g><path style="opacity:0.912" fill="#116d2e" d="M 711.5,554.5 C 718.175,554.334 724.842,554.5 731.5,555C 739.305,558.781 742.138,564.947 740,573.5C 739.208,575.587 738.041,577.421 736.5,579C 746.734,585.201 749.234,593.701 744,604.5C 741.736,607.433 738.902,609.6 735.5,611C 727.507,611.5 719.507,611.666 711.5,611.5C 711.5,592.5 711.5,573.5 711.5,554.5 Z M 715.5,558.5 C 720.599,558.175 725.599,558.675 730.5,560C 738.5,565.667 738.5,571.333 730.5,577C 725.599,578.325 720.599,578.825 715.5,578.5C 715.5,571.833 715.5,565.167 715.5,558.5 Z M 715.5,582.5 C 721.925,582.13 728.258,582.63 734.5,584C 745.167,591.333 745.167,598.667 734.5,606C 728.258,607.37 721.925,607.87 715.5,607.5C 715.5,599.167 715.5,590.833 715.5,582.5 Z"/></g>
<g><path style="opacity:0.984" fill="#116d2e" d="M 819.5,554.5 C 820.833,554.5 822.167,554.5 823.5,554.5C 823.5,573.5 823.5,592.5 823.5,611.5C 822.167,611.5 820.833,611.5 819.5,611.5C 819.5,592.5 819.5,573.5 819.5,554.5 Z"/></g>
<g><path style="opacity:0.986" fill="#116d2e" d="M 841.5,554.5 C 855.5,554.5 869.5,554.5 883.5,554.5C 883.5,555.833 883.5,557.167 883.5,558.5C 877.167,558.5 870.833,558.5 864.5,558.5C 864.5,576.167 864.5,593.833 864.5,611.5C 863.167,611.5 861.833,611.5 860.5,611.5C 860.5,593.833 860.5,576.167 860.5,558.5C 854.167,558.5 847.833,558.5 841.5,558.5C 841.5,557.167 841.5,555.833 841.5,554.5 Z"/></g>
<g><path style="opacity:0.987" fill="#116d2e" d="M 900.5,554.5 C 911.5,554.5 922.5,554.5 933.5,554.5C 933.5,555.833 933.5,557.167 933.5,558.5C 923.833,558.5 914.167,558.5 904.5,558.5C 904.5,566.167 904.5,573.833 904.5,581.5C 913.167,581.5 921.833,581.5 930.5,581.5C 930.5,582.833 930.5,584.167 930.5,585.5C 921.833,585.5 913.167,585.5 904.5,585.5C 904.5,592.833 904.5,600.167 904.5,607.5C 914.167,607.5 923.833,607.5 933.5,607.5C 933.5,608.833 933.5,610.167 933.5,611.5C 922.5,611.5 911.5,611.5 900.5,611.5C 900.5,592.5 900.5,573.5 900.5,554.5 Z"/></g>
</svg>
